<?xml version="1.0" ?>
<!DOCTYPE svg  PUBLIC '-//W3C//DTD SVG 1.1//EN'  'http://www.w3.org/Graphics/SVG/1.1/DTD/svg11.dtd'>
<svg enable-background="new 0 0 64 64" height="64px" id="Layer_1" version="1.1" viewBox="0 0 64 64" width="64px" xml:space="preserve" xmlns="http://www.w3.org/2000/svg" xmlns:xlink="http://www.w3.org/1999/xlink">
    <g>
        <path d="M15.043,54.563c-2.603,0-4.712,2.11-4.712,4.713c0,2.604,2.109,4.712,4.712,4.712s4.712-2.108,4.712-4.712   C19.755,56.674,17.646,54.563,15.043,54.563z M15.043,60.822c-0.854,0-1.546-0.691-1.546-1.546s0.692-1.546,1.546-1.546   c0.854,0,1.546,0.691,1.546,1.546S15.897,60.822,15.043,60.822z" fill="#393939"/>
        <path d="M48.957,54.563c-2.602,0-4.712,2.11-4.712,4.713c0,2.604,2.11,4.712,4.712,4.712   c2.604,0,4.711-2.108,4.711-4.712C53.668,56.674,51.562,54.563,48.957,54.563z M48.957,60.847c-0.869,0-1.571-0.702-1.571-1.57   s0.702-1.571,1.571-1.571c0.868,0,1.57,0.703,1.57,1.571S49.825,60.847,48.957,60.847z" fill="#393939"/>
        <path d="M57.037,48.152h-3.369V14.471c0,0-0.049-4.639-2.502-7.976c-2.455-3.338-5.458-6.021-10.692-6.479H24.146   c0,0-5.529-0.294-9.784,4.451c-3.304,3.632-3.682,7.265-3.984,8.934c-0.087,1.578-0.032,25.927-0.009,34.753H6.021   c-0.54,0-1.595,0.024-1.644,1.575c-0.024,1.772,2.111,1.591,2.111,1.591h2.184c0,0,0.63,0,1.705,0v0.006h3.019v-0.006   c0.883,0,1.86,0,2.929,0v0.005h31.382v-0.005c0.979,0,1.901,0,2.779,0v0.006h3.181v-0.006c2.501,0,4.136,0,4.385,0   c1.447,0,1.57-1.203,1.57-1.602C59.599,47.87,57.037,48.152,57.037,48.152z M40.664,30.75c2.172,0,3.927,1.558,3.927,3.487v13.915   H19.557V34.237c0-1.929,1.754-3.487,3.928-3.487H40.664z M28.506,27.731c0.09-0.484,0.25-0.988,0.536-1.371   c0.712-0.737,1.497-1.228,2.822-1.203c1.325,0.024,2.137,0.245,2.726,0.908c0.406,0.455,0.725,0.764,0.872,1.666H28.506z    M47.708,48.152V32.444c0-2.608-2.199-4.712-4.924-4.712h-4.103c-0.121-0.973-0.484-2.243-1.441-3.433   c-1.915-2.382-4.787-2.456-6.309-2.284c-1.366,0.155-5.135,1.25-5.609,5.717H21.25c-2.726,0-4.925,2.104-4.925,4.712v15.708h-2.929   V18.569v-4.025c0,0,0.147-3.83,2.601-7.101c2.454-3.272,5.956-4.254,8.148-4.352c2.324,0,15.479,0,15.479,0   s4.549-0.065,7.559,3.436c2.356,2.749,2.878,4.516,3.304,7.101c0.16,2.477,0.062,25.897,0.019,34.523H47.708z" fill="#393939"/>
    </g>
</svg>