<?xml version="1.0" encoding="UTF-8" ?>
<!DOCTYPE svg PUBLIC "-//W3C//DTD SVG 1.1//EN" "http://www.w3.org/Graphics/SVG/1.1/DTD/svg11.dtd">
<svg width="516pt" height="516pt" viewBox="0 0 516 516" version="1.1" xmlns="http://www.w3.org/2000/svg">
<g id="#ffffffff">
<path fill="#ffffff" opacity="1.00" d=" M 2.26 3.32 C 78.06 2.75 153.88 2.86 229.68 3.26 C 230.25 79.06 230.14 154.88 229.74 230.68 C 153.94 231.25 78.12 231.14 2.32 230.74 C 1.75 154.94 1.86 79.12 2.26 3.32 Z" />
<path fill="#ffffff" opacity="1.00" d=" M 287.26 3.32 C 363.06 2.75 438.88 2.86 514.68 3.26 C 515.25 79.06 515.14 154.88 514.74 230.68 C 438.94 231.25 363.12 231.14 287.32 230.74 C 286.75 154.94 286.86 79.12 287.26 3.32 Z" />
<path fill="#ffffff" opacity="1.00" d=" M 2.61 287.95 C 78.42 288.45 154.25 287.18 230.05 288.61 C 229.61 364.40 230.71 440.21 229.47 516.00 L 2.46 516.00 C 1.61 488.67 2.12 461.33 2.00 434.00 C 2.36 385.32 1.24 336.62 2.61 287.95 Z" />
<path fill="#ffffff" opacity="1.00" d=" M 287.61 287.95 C 363.42 288.45 439.25 287.18 515.05 288.61 C 514.60 364.40 515.73 440.21 514.45 516.00 L 287.45 516.00 C 286.52 482.01 287.19 448.00 287.00 414.00 C 287.32 371.98 286.27 329.95 287.61 287.95 Z" />
</g>
</svg>
