<?xml version="1.0" encoding="UTF-8" ?>
<!DOCTYPE svg PUBLIC "-//W3C//DTD SVG 1.1//EN" "http://www.w3.org/Graphics/SVG/1.1/DTD/svg11.dtd">
<svg width="450pt" height="178pt" viewBox="0 0 450 178" version="1.1" xmlns="http://www.w3.org/2000/svg">
<g id="#fffff">
<path fill="#fff" opacity="1.00" d=" M 207.93 9.10 C 211.96 8.61 216.02 7.69 220.10 8.30 C 284.68 16.79 349.28 25.13 413.85 33.63 C 418.05 34.08 421.76 37.70 421.75 42.02 C 421.89 54.72 421.74 67.42 421.81 80.11 C 421.62 81.49 422.69 82.50 423.42 83.52 C 431.63 93.20 438.22 105.07 438.83 117.99 C 439.31 126.76 435.30 135.98 427.47 140.39 C 416.52 147.52 400.47 144.96 392.50 134.55 C 386.83 127.05 386.73 116.77 389.33 108.07 C 392.15 98.10 397.99 89.30 404.72 81.54 C 404.75 71.64 404.72 61.74 404.74 51.83 C 343.16 59.90 281.57 67.87 220.00 75.96 C 216.02 76.57 212.05 75.63 208.10 75.17 C 145.67 67.04 83.24 58.87 20.80 50.76 C 17.65 50.53 14.49 48.88 13.11 45.93 C 10.89 41.78 12.96 36.09 17.32 34.34 C 20.12 33.34 23.14 33.26 26.07 32.83 C 86.69 24.93 147.31 17.00 207.93 9.10 M 86.80 42.12 C 129.57 47.74 172.36 53.28 215.13 58.88 C 217.84 59.16 220.54 58.69 223.22 58.32 C 264.54 52.88 305.88 47.58 347.20 42.10 C 306.47 36.81 265.75 31.47 225.02 26.17 C 221.67 25.78 218.31 24.98 214.92 25.39 C 172.22 30.98 129.51 36.53 86.80 42.12 M 404.76 118.99 C 404.65 122.10 406.13 125.53 409.23 126.64 C 413.70 128.53 420.46 127.02 421.48 121.62 C 422.84 112.97 417.81 105.07 413.31 98.12 C 409.04 104.32 404.91 111.24 404.76 118.99 Z" />
<path fill="#fff" opacity="1.00" d=" M 83.65 69.65 C 87.02 66.78 92.57 67.25 95.40 70.65 C 97.23 72.60 97.61 75.36 97.55 77.93 C 97.49 95.41 97.60 112.90 97.49 130.38 C 124.34 141.53 153.01 148.00 181.86 151.18 C 217.86 154.97 254.49 152.96 289.80 144.95 C 305.71 141.38 321.42 136.73 336.48 130.43 C 336.46 112.60 336.46 94.76 336.48 76.93 C 336.14 72.53 339.54 68.23 343.98 67.82 C 348.76 67.08 353.51 71.17 353.48 76.01 C 353.60 95.70 353.51 115.40 353.52 135.10 C 353.84 139.18 351.18 142.99 347.33 144.28 C 319.21 156.80 288.94 163.99 258.46 167.69 C 208.37 173.41 156.92 168.93 109.00 153.01 C 102.37 150.77 95.80 148.34 89.41 145.49 C 86.61 144.22 83.31 143.20 81.72 140.34 C 80.50 138.47 80.49 136.18 80.45 134.03 C 80.49 114.99 80.44 95.95 80.48 76.90 C 80.39 74.16 81.44 71.35 83.65 69.65 Z" />
</g>
</svg>
